<svg width="1600" height="420" viewBox="0 0 1600 420" xmlns="http://www.w3.org/2000/svg">

  <defs>
    <linearGradient id="auroraBorder" x1="0" y1="0" x2="1" y2="1">
      <stop offset="0%"  stop-color="rgb(45,217,200)"/>
      <stop offset="50%" stop-color="rgb(139,77,255)"/>
      <stop offset="100%" stop-color="rgb(196,103,158)"/>
    </linearGradient>
  </defs>

  <rect width="1600" height="420" fill="#05060a"/>
  <circle cx="295.1" cy="79.8" r="1.3" fill="#dfe6f5" opacity="0.33"/><circle cx="689.2" cy="160.0" r="0.9" fill="#dfe6f5" opacity="0.29"/><circle cx="870.4" cy="228.3" r="1.1" fill="#dfe6f5" opacity="0.17"/><circle cx="728.2" cy="166.0" r="0.5" fill="#dfe6f5" opacity="0.38"/><circle cx="904.3" cy="389.7" r="1.1" fill="#dfe6f5" opacity="0.13"/><circle cx="318.7" cy="87.7" r="0.8" fill="#dfe6f5" opacity="0.20"/><circle cx="658.9" cy="307.3" r="1.2" fill="#dfe6f5" opacity="0.17"/><circle cx="195.9" cy="283.1" r="0.5" fill="#dfe6f5" opacity="0.36"/><circle cx="321.5" cy="337.1" r="0.3" fill="#dfe6f5" opacity="0.30"/><circle cx="697.6" cy="162.5" r="0.6" fill="#dfe6f5" opacity="0.10"/><circle cx="228.0" cy="106.1" r="0.7" fill="#dfe6f5" opacity="0.30"/><circle cx="468.5" cy="239.9" r="0.8" fill="#dfe6f5" opacity="0.27"/><circle cx="1374.9" cy="402.1" r="1.1" fill="#dfe6f5" opacity="0.12"/><circle cx="255.4" cy="108.9" r="0.5" fill="#dfe6f5" opacity="0.15"/><circle cx="415.3" cy="138.0" r="0.6" fill="#dfe6f5" opacity="0.15"/><circle cx="253.1" cy="308.1" r="0.9" fill="#dfe6f5" opacity="0.28"/><circle cx="957.8" cy="239.5" r="0.4" fill="#dfe6f5" opacity="0.16"/><circle cx="424.2" cy="350.2" r="0.6" fill="#dfe6f5" opacity="0.20"/><circle cx="841.0" cy="254.0" r="1.0" fill="#dfe6f5" opacity="0.36"/><circle cx="1367.1" cy="58.9" r="1.3" fill="#dfe6f5" opacity="0.33"/><circle cx="501.9" cy="166.2" r="1.2" fill="#dfe6f5" opacity="0.39"/><circle cx="1548.3" cy="270.2" r="1.0" fill="#dfe6f5" opacity="0.27"/><circle cx="553.5" cy="6.3" r="0.8" fill="#dfe6f5" opacity="0.32"/><circle cx="1440.7" cy="142.2" r="1.0" fill="#dfe6f5" opacity="0.16"/><circle cx="291.7" cy="206.3" r="1.3" fill="#dfe6f5" opacity="0.42"/><circle cx="95.6" cy="13.0" r="0.9" fill="#dfe6f5" opacity="0.33"/><circle cx="874.1" cy="287.8" r="0.7" fill="#dfe6f5" opacity="0.35"/><circle cx="742.6" cy="172.2" r="1.1" fill="#dfe6f5" opacity="0.14"/><circle cx="1163.2" cy="23.8" r="0.4" fill="#dfe6f5" opacity="0.25"/><circle cx="1101.7" cy="253.0" r="1.0" fill="#dfe6f5" opacity="0.16"/><circle cx="1107.9" cy="196.0" r="1.2" fill="#dfe6f5" opacity="0.19"/><circle cx="651.5" cy="178.5" r="1.4" fill="#dfe6f5" opacity="0.14"/><circle cx="345.4" cy="186.2" r="1.1" fill="#dfe6f5" opacity="0.41"/><circle cx="632.6" cy="356.8" r="0.7" fill="#dfe6f5" opacity="0.23"/><circle cx="1441.0" cy="338.8" r="0.7" fill="#dfe6f5" opacity="0.13"/><circle cx="816.7" cy="46.9" r="0.7" fill="#dfe6f5" opacity="0.34"/><circle cx="1044.3" cy="207.0" r="0.4" fill="#dfe6f5" opacity="0.31"/><circle cx="502.5" cy="11.1" r="1.3" fill="#dfe6f5" opacity="0.13"/><circle cx="1232.9" cy="123.0" r="1.3" fill="#dfe6f5" opacity="0.14"/><circle cx="351.7" cy="94.2" r="1.1" fill="#dfe6f5" opacity="0.22"/><circle cx="1330.2" cy="120.6" r="1.3" fill="#dfe6f5" opacity="0.40"/><circle cx="376.1" cy="53.8" r="1.2" fill="#dfe6f5" opacity="0.38"/><circle cx="1110.6" cy="261.1" r="0.9" fill="#dfe6f5" opacity="0.33"/><circle cx="108.8" cy="364.4" r="1.4" fill="#dfe6f5" opacity="0.16"/><circle cx="492.6" cy="7.4" r="0.9" fill="#dfe6f5" opacity="0.12"/><circle cx="1028.8" cy="189.7" r="1.5" fill="#dfe6f5" opacity="0.23"/><circle cx="883.2" cy="9.7" r="1.4" fill="#dfe6f5" opacity="0.17"/><circle cx="716.4" cy="151.5" r="1.1" fill="#dfe6f5" opacity="0.12"/><circle cx="444.6" cy="81.5" r="0.7" fill="#dfe6f5" opacity="0.33"/><circle cx="1524.7" cy="183.2" r="0.6" fill="#dfe6f5" opacity="0.22"/><circle cx="1321.7" cy="203.3" r="1.3" fill="#dfe6f5" opacity="0.18"/><circle cx="659.8" cy="298.5" r="0.6" fill="#dfe6f5" opacity="0.28"/><circle cx="859.4" cy="352.0" r="0.7" fill="#dfe6f5" opacity="0.23"/><circle cx="1265.2" cy="411.4" r="1.1" fill="#dfe6f5" opacity="0.36"/><circle cx="1316.5" cy="99.1" r="0.7" fill="#dfe6f5" opacity="0.40"/><circle cx="782.3" cy="145.3" r="1.4" fill="#dfe6f5" opacity="0.31"/><circle cx="1124.6" cy="19.9" r="1.0" fill="#dfe6f5" opacity="0.33"/><circle cx="1425.3" cy="166.8" r="0.7" fill="#dfe6f5" opacity="0.43"/><circle cx="350.1" cy="312.6" r="1.1" fill="#dfe6f5" opacity="0.24"/><circle cx="785.5" cy="345.3" r="0.4" fill="#dfe6f5" opacity="0.14"/><circle cx="1419.6" cy="416.6" r="1.0" fill="#dfe6f5" opacity="0.43"/><circle cx="659.8" cy="409.6" r="0.5" fill="#dfe6f5" opacity="0.22"/><circle cx="160.0" cy="200.5" r="1.0" fill="#dfe6f5" opacity="0.25"/><circle cx="1564.7" cy="174.3" r="1.2" fill="#dfe6f5" opacity="0.35"/><circle cx="441.1" cy="151.4" r="0.4" fill="#dfe6f5" opacity="0.14"/><circle cx="31.3" cy="235.1" r="1.0" fill="#dfe6f5" opacity="0.25"/><circle cx="468.8" cy="118.1" r="0.6" fill="#dfe6f5" opacity="0.32"/><circle cx="249.1" cy="342.8" r="1.1" fill="#dfe6f5" opacity="0.28"/><circle cx="69.7" cy="184.7" r="1.0" fill="#dfe6f5" opacity="0.41"/><circle cx="499.1" cy="418.5" r="0.8" fill="#dfe6f5" opacity="0.27"/><circle cx="240.0" cy="211.4" r="1.3" fill="#dfe6f5" opacity="0.26"/><circle cx="390.8" cy="248.3" r="0.9" fill="#dfe6f5" opacity="0.39"/><circle cx="353.1" cy="259.2" r="0.7" fill="#dfe6f5" opacity="0.15"/><circle cx="850.9" cy="337.8" r="0.6" fill="#dfe6f5" opacity="0.45"/><circle cx="1136.0" cy="52.2" r="1.1" fill="#dfe6f5" opacity="0.38"/><circle cx="641.5" cy="58.1" r="0.4" fill="#dfe6f5" opacity="0.27"/><circle cx="368.3" cy="336.7" r="0.3" fill="#dfe6f5" opacity="0.25"/><circle cx="76.1" cy="185.3" r="0.9" fill="#dfe6f5" opacity="0.22"/><circle cx="1359.3" cy="377.8" r="1.2" fill="#dfe6f5" opacity="0.40"/><circle cx="786.8" cy="156.3" r="0.9" fill="#dfe6f5" opacity="0.17"/><circle cx="267.1" cy="351.6" r="0.8" fill="#dfe6f5" opacity="0.24"/><circle cx="1334.2" cy="125.6" r="0.7" fill="#dfe6f5" opacity="0.11"/><circle cx="503.8" cy="9.2" r="0.8" fill="#dfe6f5" opacity="0.45"/><circle cx="632.7" cy="53.4" r="1.5" fill="#dfe6f5" opacity="0.35"/><circle cx="1081.8" cy="173.5" r="0.6" fill="#dfe6f5" opacity="0.43"/><circle cx="1015.3" cy="24.9" r="0.5" fill="#dfe6f5" opacity="0.12"/><circle cx="1105.1" cy="335.6" r="1.0" fill="#dfe6f5" opacity="0.18"/><circle cx="1183.9" cy="200.4" r="0.9" fill="#dfe6f5" opacity="0.27"/><circle cx="572.1" cy="71.3" r="1.0" fill="#dfe6f5" opacity="0.40"/><circle cx="223.6" cy="145.8" r="1.0" fill="#dfe6f5" opacity="0.11"/><circle cx="566.5" cy="28.2" r="0.6" fill="#dfe6f5" opacity="0.43"/><circle cx="1490.8" cy="133.2" r="0.8" fill="#dfe6f5" opacity="0.26"/><circle cx="380.2" cy="79.0" r="0.7" fill="#dfe6f5" opacity="0.21"/><circle cx="1121.9" cy="101.1" r="1.0" fill="#dfe6f5" opacity="0.22"/><circle cx="968.2" cy="187.4" r="1.3" fill="#dfe6f5" opacity="0.10"/><circle cx="884.1" cy="279.5" r="0.4" fill="#dfe6f5" opacity="0.42"/><circle cx="1516.6" cy="151.8" r="0.4" fill="#dfe6f5" opacity="0.30"/><circle cx="517.6" cy="261.0" r="1.2" fill="#dfe6f5" opacity="0.33"/><circle cx="1357.1" cy="141.4" r="0.7" fill="#dfe6f5" opacity="0.25"/><circle cx="26.9" cy="293.4" r="1.3" fill="#dfe6f5" opacity="0.39"/><circle cx="187.9" cy="272.8" r="1.4" fill="#dfe6f5" opacity="0.13"/><circle cx="962.4" cy="163.0" r="1.2" fill="#dfe6f5" opacity="0.38"/><circle cx="480.9" cy="113.6" r="1.2" fill="#dfe6f5" opacity="0.38"/><circle cx="677.0" cy="402.9" r="1.1" fill="#dfe6f5" opacity="0.43"/><circle cx="64.3" cy="412.9" r="1.0" fill="#dfe6f5" opacity="0.10"/><circle cx="728.8" cy="401.7" r="1.3" fill="#dfe6f5" opacity="0.42"/><circle cx="1327.5" cy="311.1" r="0.5" fill="#dfe6f5" opacity="0.42"/><circle cx="1052.1" cy="59.1" r="0.5" fill="#dfe6f5" opacity="0.35"/><circle cx="35.2" cy="98.7" r="0.4" fill="#dfe6f5" opacity="0.31"/><circle cx="625.8" cy="76.2" r="1.3" fill="#dfe6f5" opacity="0.11"/><circle cx="422.0" cy="14.4" r="1.3" fill="#dfe6f5" opacity="0.13"/><circle cx="910.7" cy="74.7" r="0.6" fill="#dfe6f5" opacity="0.38"/><circle cx="986.3" cy="60.7" r="1.3" fill="#dfe6f5" opacity="0.12"/><circle cx="1069.0" cy="161.1" r="0.8" fill="#dfe6f5" opacity="0.44"/><circle cx="1477.5" cy="284.9" r="0.7" fill="#dfe6f5" opacity="0.43"/><circle cx="1464.4" cy="75.8" r="1.0" fill="#dfe6f5" opacity="0.15"/><circle cx="1552.1" cy="187.6" r="0.9" fill="#dfe6f5" opacity="0.14"/><circle cx="1112.2" cy="163.3" r="0.3" fill="#dfe6f5" opacity="0.12"/><circle cx="898.2" cy="81.7" r="1.4" fill="#dfe6f5" opacity="0.21"/><circle cx="517.9" cy="349.1" r="1.2" fill="#dfe6f5" opacity="0.31"/>

  <!-- ── GITHUB STATS ───────────────────────────────────── -->
  
    <rect x="100" y="60" width="460" height="280" fill="#0a0c10" stroke="url(#auroraBorder)" stroke-width="2"/>
    <line x1="100" y1="100" x2="560" y2="100" stroke="url(#auroraBorder)" stroke-width="2"/>
    <text x="120" y="85" style="font-family:'JetBrains Mono',monospace;font-size:13px;fill:rgb(45,217,200);font-weight:700;letter-spacing:0.5px;">$ cat account.stats</text>
  
  <text x="128" y="144" style="font-family:'JetBrains Mono',monospace;font-size:13px;fill:rgb(45,217,200);font-weight:600;letter-spacing:0.5px;">PUBLIC REPOS</text>
  <text x="128" y="172" style="font-family:'JetBrains Mono',monospace;font-size:24px;fill:rgb(120,235,220);font-weight:700;letter-spacing:1px;">37</text>
  <text x="128" y="216" style="font-family:'JetBrains Mono',monospace;font-size:13px;fill:rgb(45,217,200);font-weight:600;letter-spacing:0.5px;">FOLLOWERS</text>
  <text x="128" y="244" style="font-family:'JetBrains Mono',monospace;font-size:24px;fill:rgb(120,235,220);font-weight:700;letter-spacing:1px;">23</text>
  <text x="320" y="144" style="font-family:'JetBrains Mono',monospace;font-size:13px;fill:rgb(45,217,200);font-weight:600;letter-spacing:0.5px;">STARS EARNED</text>
  <text x="320" y="172" style="font-family:'JetBrains Mono',monospace;font-size:24px;fill:rgb(120,235,220);font-weight:700;letter-spacing:1px;">5</text>
  <text x="320" y="216" style="font-family:'JetBrains Mono',monospace;font-size:13px;fill:rgb(45,217,200);font-weight:600;letter-spacing:0.5px;">CONTRIBUTIONS</text>
  <text x="320" y="244" style="font-family:'JetBrains Mono',monospace;font-size:24px;fill:rgb(120,235,220);font-weight:700;letter-spacing:1px;">550</text>
  <text x="128" y="316" style="font-family:'JetBrains Mono',monospace;font-size:13px;fill:#6b7488;font-weight:400;letter-spacing:0.5px;">github.com/devsw-prayas</text>

  
    <rect x="580" y="60" width="460" height="280" fill="#0a0c10" stroke="url(#auroraBorder)" stroke-width="2"/>
    <line x1="580" y1="100" x2="1040" y2="100" stroke="url(#auroraBorder)" stroke-width="2"/>
    <text x="600" y="85" style="font-family:'JetBrains Mono',monospace;font-size:13px;fill:rgb(45,217,200);font-weight:700;letter-spacing:0.5px;">$ uptime --contrib</text>
  
  <text x="608" y="144" style="font-family:'JetBrains Mono',monospace;font-size:13px;fill:rgb(45,217,200);font-weight:600;letter-spacing:0.5px;">COMMITS TODAY</text>
  <text x="608" y="172" style="font-family:'JetBrains Mono',monospace;font-size:24px;fill:rgb(120,235,220);font-weight:700;letter-spacing:1px;">0</text>
  <text x="608" y="216" style="font-family:'JetBrains Mono',monospace;font-size:13px;fill:rgb(45,217,200);font-weight:600;letter-spacing:0.5px;">CURRENT STREAK</text>
  <text x="608" y="244" style="font-family:'JetBrains Mono',monospace;font-size:24px;fill:rgb(120,235,220);font-weight:700;letter-spacing:1px;">0d</text>
  <text x="808" y="216" style="font-family:'JetBrains Mono',monospace;font-size:13px;fill:rgb(45,217,200);font-weight:600;letter-spacing:0.5px;">LONGEST STREAK</text>
  <text x="808" y="244" style="font-family:'JetBrains Mono',monospace;font-size:24px;fill:rgb(120,235,220);font-weight:700;letter-spacing:1px;">16d</text>
  <text x="608" y="316" style="font-family:'JetBrains Mono',monospace;font-size:13px;fill:#6b7488;font-weight:400;letter-spacing:0.5px;">last 365 days</text>

  
    <rect x="1060" y="60" width="460" height="280" fill="#0a0c10" stroke="url(#auroraBorder)" stroke-width="2"/>
    <line x1="1060" y1="100" x2="1520" y2="100" stroke="url(#auroraBorder)" stroke-width="2"/>
    <text x="1080" y="85" style="font-family:'JetBrains Mono',monospace;font-size:13px;fill:rgb(45,217,200);font-weight:700;letter-spacing:0.5px;">$ cloc --top4</text>
  
  
        <text x="1090" y="146" style="font-family:'JetBrains Mono',monospace;font-size:13px;fill:#6b7488;font-weight:400;letter-spacing:0.5px;">C++</text>
        <text x="1090" y="166" style="font-family:'JetBrains Mono',monospace;font-size:15px;fill:rgb(45,217,200);font-weight:400;letter-spacing:-0.5px;">█████████████░░░░░░░░░░░</text>
        <text x="1470" y="166" style="font-family:'JetBrains Mono',monospace;font-size:13px;fill:#6b7488;font-weight:400;letter-spacing:0.5px;" text-anchor="end">52.3%</text>
      
        <text x="1090" y="188" style="font-family:'JetBrains Mono',monospace;font-size:13px;fill:#6b7488;font-weight:400;letter-spacing:0.5px;">PYTHON</text>
        <text x="1090" y="208" style="font-family:'JetBrains Mono',monospace;font-size:15px;fill:rgb(45,217,200);font-weight:400;letter-spacing:-0.5px;">████░░░░░░░░░░░░░░░░░░░░</text>
        <text x="1470" y="208" style="font-family:'JetBrains Mono',monospace;font-size:13px;fill:#6b7488;font-weight:400;letter-spacing:0.5px;" text-anchor="end">16.5%</text>
      
        <text x="1090" y="230" style="font-family:'JetBrains Mono',monospace;font-size:13px;fill:#6b7488;font-weight:400;letter-spacing:0.5px;">KOTLIN</text>
        <text x="1090" y="250" style="font-family:'JetBrains Mono',monospace;font-size:15px;fill:rgb(45,217,200);font-weight:400;letter-spacing:-0.5px;">██░░░░░░░░░░░░░░░░░░░░░░</text>
        <text x="1470" y="250" style="font-family:'JetBrains Mono',monospace;font-size:13px;fill:#6b7488;font-weight:400;letter-spacing:0.5px;" text-anchor="end">8.4%</text>
      
        <text x="1090" y="272" style="font-family:'JetBrains Mono',monospace;font-size:13px;fill:#6b7488;font-weight:400;letter-spacing:0.5px;">JAVA</text>
        <text x="1090" y="292" style="font-family:'JetBrains Mono',monospace;font-size:15px;fill:rgb(45,217,200);font-weight:400;letter-spacing:-0.5px;">██░░░░░░░░░░░░░░░░░░░░░░</text>
        <text x="1470" y="292" style="font-family:'JetBrains Mono',monospace;font-size:13px;fill:#6b7488;font-weight:400;letter-spacing:0.5px;" text-anchor="end">7.0%</text>
      

</svg>